# xmcd
#
# Track frame offsets: 
#        150
#        21071
#        39424
#        64521
#        89869
#        115271
#        141893
#        170386
#        197907
#        221522
#        226669
#        244516
#        265523
#        292576
#        317976
#
# Disc length: 4599 seconds
#
# Revision: 2
# Processed by: cddbd v1.5.2PL0 Copyright (c) Steve Scherf et al.
# Submitted via: ExactAudioCopy v0.99pb5
#
DISCID=ca11f50f
DTITLE=The Acfican Lounge Experience - The Acfican Lounge Experience
DYEAR=2007
DGENRE=Jazz
TTITLE0=Eeze Now
TTITLE1=Putuwayo
TTITLE2=Free Mind
TTITLE3=Tlare Kopane (Behind the Tree)
TTITLE4=Common Ground
TTITLE5=Liya Buya (What is your Goal?)
TTITLE6=Phula (Rain)
TTITLE7=Musandi Bati (Let Me Free!)
TTITLE8=Senegal Soul
TTITLE9=Interlude
TTITLE10=Ukunwaba (Stretch Out and Relax)
TTITLE11=Mparra (Fool)
TTITLE12=Phula Remix
TTITLE13=Kao Fela (Everything)
TTITLE14=Tribalizm
EXTD=YEAR: 0644
EXTT0=
EXTT1=
EXTT2=
EXTT3=
EXTT4=
EXTT5=
EXTT6=
EXTT7=
EXTT8=
EXTT9=
EXTT10=
EXTT11=
EXTT12=
EXTT13=
EXTT14=
PLAYORDER=
